HIERARCHY
ROOT Hip
{
  OFFSET 0.0 0.0 0.0
  CHANNELS 6 Xposition Yposition Zposition Xrotation Yrotation Zrotation
  JOINT LowerSpine
  {
    OFFSET 0.0 0.061367 -0.03653
    CHANNELS 3 Xrotation Yrotation Zrotation
    JOINT MiddleSpine
    {
      OFFSET 0.0 0.056002 0.002633
      CHANNELS 3 Xrotation Yrotation Zrotation
      JOINT Chest
      {
        OFFSET 0.0 0.069296 -0.013882
        CHANNELS 3 Xrotation Yrotation Zrotation
        JOINT Neck
        {
          OFFSET 0.0 0.156156 -0.002923
          CHANNELS 3 Xrotation Yrotation Zrotation
          JOINT Head
          {
            OFFSET 0.0 0.088183 0.023986
            CHANNELS 3 Xrotation Yrotation Zrotation
            End Site
            {
              OFFSET 1e-06 0.123215 0.003678
            }
          }
        }
        JOINT LClavicle
        {
          OFFSET 0.014189 0.150698 0.046467
          CHANNELS 3 Xrotation Yrotation Zrotation
          JOINT LShoulder
          {
            OFFSET 0.082893 0.021616 -0.034976
            CHANNELS 3 Xrotation Yrotation Zrotation
            JOINT LForearm
            {
              OFFSET 0.195645 -0.000695 -0.001695
              CHANNELS 3 Xrotation Yrotation Zrotation
              JOINT LHand
              {
                OFFSET 0.163209 0.000474 -0.000977
                CHANNELS 3 Xrotation Yrotation Zrotation
                End Site
                {
                  OFFSET 0.0 0.006864 0.0
                }
              }
            }
          }
        }
        JOINT RClavicle
        {
          OFFSET -0.014189 0.150698 0.046467
          CHANNELS 3 Xrotation Yrotation Zrotation
          JOINT RShoulder
          {
            OFFSET -0.082908 0.021619 -0.034982
            CHANNELS 3 Xrotation Yrotation Zrotation
            JOINT RForearm
            {
              OFFSET -0.195645 -0.000695 -0.001695
              CHANNELS 3 Xrotation Yrotation Zrotation
              JOINT RHand
              {
                OFFSET -0.163209 0.000474 -0.000977
                CHANNELS 3 Xrotation Yrotation Zrotation
                End Site
                {
                  OFFSET 0.0 0.006864 0.0
                }
              }
            }
          }
        }
      }
    }
  }
  JOINT RThigh
  {
    OFFSET -0.072558 0.02774 -0.005953
    CHANNELS 3 Xrotation Yrotation Zrotation
    JOINT RShin
    {
      OFFSET -0.005253 -0.285537 0.0
      CHANNELS 3 Xrotation Yrotation Zrotation
      JOINT RFoot
      {
        OFFSET 0.0 -0.28038 0.0
        CHANNELS 3 Xrotation Yrotation Zrotation
        JOINT RToe
        {
          OFFSET 0.0 -0.030816 0.064441
          CHANNELS 3 Xrotation Yrotation Zrotation
          End Site
          {
            OFFSET 0.0 0.0 0.043231
          }
        }
      }
    }
  }
  JOINT LThigh
  {
    OFFSET 0.072557 0.027741 -0.005953
    CHANNELS 3 Xrotation Yrotation Zrotation
    JOINT LShin
    {
      OFFSET 0.005253 -0.285539 0.0
      CHANNELS 3 Xrotation Yrotation Zrotation
      JOINT LFoot
      {
        OFFSET 0.0 -0.28038 0.0
        CHANNELS 3 Xrotation Yrotation Zrotation
        JOINT LToe
        {
          OFFSET 0.0 -0.030816 0.064441
          CHANNELS 3 Xrotation Yrotation Zrotation
          End Site
          {
            OFFSET 0.0 0.0 0.043231
          }
        }
      }
    }
  }
}
MOTION
Frames: 16
Frame Time: 0.03333333333333333
0.009862 0.585989 -0.006662 5.372136 11.025871 -2.930443 -1.090574 -0.104124 0.003358 -0.68778 0.875837 0.39849 -6.201015 1.918326 0.331292 -1.78476 0.014654 0.134227 0.004845 -0.060733 -0.016063 0.324047 0.059743 -13.719109 23.870691 -27.702417 -54.229912 12.620063 -23.733248 -1.396553 0.111325 0.132032 -0.116958 0.182767 0.485391 13.955952 18.044382 32.566429 55.093899 8.047719 18.876007 2.682738 0.043251 -0.142545 -0.009083 -6.50682 -3.203567 1.235575 16.713503 -1.891449 0.499516 -0.755282 1.007712 0.211188 -0.242886 0.235458 0.074231 -4.810721 5.064077 -0.82038 11.297734 3.109189 -2.154363 -0.914132 -1.046394 -0.244093 -0.026348 -0.105906 -0.039014 
-0.00368 0.582592 -0.009884 6.068432 15.293555 -2.241171 -0.83198 -0.092793 0.183 -1.144395 0.222417 0.666418 -7.132575 1.400487 -0.140167 -1.052443 -0.020689 0.08194 0.010917 -0.019274 0.005248 0.071627 0.221452 -13.324733 26.29039 -26.827213 -52.363728 14.715173 -22.732599 -1.779572 0.034134 0.046637 -0.044206 0.172705 1.233916 13.564027 20.700184 32.382698 51.42931 10.476912 23.087257 3.58481 -0.011833 -0.080124 -0.002489 -8.41421 -2.581069 0.9172 22.222897 -1.939391 0.404085 -0.050309 0.687998 0.330882 -0.312937 0.055007 0.056986 -7.264151 5.943696 -1.756063 9.460965 4.147756 -1.620436 -0.257063 -1.369115 -0.491092 0.01825 -0.069942 -0.046523 
-0.004602 0.577837 0.000155 6.190445 16.179646 -1.920021 -0.709023 -0.169885 0.140786 -1.238556 0.240166 0.809822 -7.981863 0.695375 0.227681 -0.801608 0.039303 -0.033613 0.009645 -0.011334 0.017217 0.221947 0.313073 -13.678018 27.244415 -27.488411 -53.286091 15.776634 -22.42289 -2.767326 0.021602 0.037477 -0.031767 0.23004 1.163527 13.355063 21.713594 32.794727 51.604778 11.554148 26.268463 4.678222 0.032921 -0.09635 0.004258 -6.904534 -3.646301 0.734818 20.779982 -2.662271 0.706544 -0.381111 0.575863 0.159687 -0.297338 0.07952 0.052071 -9.335804 5.455618 -2.387473 8.296505 4.470363 -1.006865 -0.182107 -1.073334 -0.341729 0.01125 -0.039924 -0.030546 
0.0002 0.570724 -0.002137 5.950731 15.314768 -1.747908 -0.644918 -0.142213 0.229955 -1.288548 0.284562 0.89599 -7.977474 0.221327 0.46366 -0.610031 0.065219 -0.117427 0.011245 -0.073688 0.016019 0.169335 0.17406 -13.829084 27.469278 -27.462353 -54.70549 15.580179 -22.848028 -3.173459 0.025706 0.046486 -0.039053 0.192587 1.319901 12.983309 21.952559 32.11161 51.686699 11.790879 30.802563 5.670349 -9e-06 -0.07695 0.002366 -6.023282 -4.739766 0.743639 20.325373 -3.276638 0.727465 -0.408894 0.487955 0.04516 -0.325089 0.068429 0.062076 -10.524277 5.003124 -2.526888 7.402658 4.209635 -0.770166 -0.157999 -0.973125 -0.222393 0.021816 -0.049581 -0.040263 
0.001163 0.567644 -0.003516 6.12872 15.442622 -1.282777 -0.638474 -0.103891 0.323633 -1.291166 0.315959 0.900979 -8.221107 0.112683 0.427899 -0.554977 0.082022 -0.167195 0.012953 -0.101921 0.014412 0.089188 0.052769 -13.732457 27.781567 -27.050482 -55.575695 15.084969 -23.857388 -3.378591 0.026251 0.047593 -0.040514 0.159083 1.468386 12.932348 21.60232 31.77821 52.006405 11.394837 31.434149 6.199232 -0.024356 -0.060437 0.000138 -6.433046 -4.836807 0.8264 20.670027 -3.347872 0.592997 -0.499539 0.370443 -0.033945 -0.351925 0.047353 0.063933 -11.7822 5.049081 -2.686924 7.202856 4.161152 -0.833492 -0.200075 -0.964312 -0.191169 0.026017 -0.051061 -0.046518 
-0.002195 0.566747 9.6e-05 6.585776 16.792059 -0.667918 -0.615495 -0.077435 0.372387 -1.304668 0.373537 0.897229 -8.787192 0.350497 0.420372 -0.515942 0.11306 -0.187585 0.014101 -0.108657 0.014157 0.0707 -0.027308 -13.366012 28.333189 -26.625393 -56.131218 15.041419 -24.955725 -3.487381 0.027614 0.051837 -0.043013 0.127993 1.466104 13.05673 20.421232 32.090015 53.244968 10.509013 28.541985 6.332948 -0.025592 -0.055282 -0.000908 -7.394092 -4.508806 1.02092 21.067429 -3.175838 0.485636 -0.714686 0.251287 -0.121596 -0.369607 0.048603 0.065118 -13.263087 5.276591 -3.046439 7.117886 4.238965 -0.91777 -0.202179 -1.021829 -0.233077 0.027031 -0.051851 -0.04883 
-0.010686 0.564811 0.003193 7.307821 18.625113 -0.0452 -0.58488 -0.04549 0.384482 -1.363226 0.415996 0.882548 -9.744488 0.701092 0.610915 -0.492856 0.139315 -0.200856 0.013449 -0.10097 0.015504 0.09492 -0.077493 -12.83581 29.070972 -26.018648 -56.532516 15.251299 -26.352207 -3.667528 0.026899 0.053417 -0.042953 0.118199 1.358593 13.240563 19.039778 32.48455 55.122234 9.191602 24.791664 6.514228 -0.005941 -0.04523 0.001665 -8.267194 -4.414951 1.180513 21.315929 -3.12888 0.59601 -1.049235 0.106347 -0.215541 -0.381748 0.056815 0.059469 -15.74271 5.571746 -3.325406 7.335473 4.338004 -0.819936 -0.126193 -1.12077 -0.326302 0.021516 -0.043407 -0.044659 
-0.019168 0.562341 0.007173 8.068625 20.424564 0.401608 -0.522071 -0.027537 0.371607 -1.499293 0.444241 0.89441 -10.880156 1.156309 0.920917 -0.442371 0.168978 -0.201993 0.011937 -0.09129 0.017612 0.131046 -0.101717 -12.261161 30.000345 -25.589256 -56.7924 16.017515 -27.599867 -3.905337 0.025487 0.054904 -0.043898 0.091422 1.230461 13.426886 17.947857 32.754112 57.171051 7.823286 21.362183 6.621552 0.015158 -0.034808 0.004999 -9.101529 -4.425277 1.162484 22.259239 -3.206434 0.881917 -1.37362 -0.070947 -0.321551 -0.408028 0.066337 0.054122 -18.53684 5.986867 -3.608943 7.659176 4.367067 -0.570392 -0.033738 -1.285257 -0.435724 0.013811 -0.035354 -0.039454 
-0.025638 0.559826 0.01233 8.58867 21.83746 0.539103 -0.470971 -0.02384 0.350939 -1.629789 0.492513 0.897112 -11.598671 1.723103 1.307694 -0.402886 0.189999 -0.21192 0.011469 -0.084287 0.019134 0.138934 -0.085442 -11.800626 30.658484 -24.831011 -57.150818 16.438959 -28.353121 -4.05498 0.026888 0.058568 -0.048226 0.050699 1.09061 13.572598 16.923515 32.831657 58.792629 6.761579 19.262852 6.615454 0.038619 -0.034089 0.007394 -9.343503 -4.600366 1.140279 23.230537 -3.351695 1.221333 -1.593723 -0.224878 -0.420335 -0.443935 0.073668 0.049412 -21.03878 6.283348 -3.818152 7.897626 4.445842 -0.328296 0.065098 -1.438403 -0.540249 0.005108 -0.030968 -0.036689 
-0.027637 0.557705 0.019335 8.649674 22.031406 0.089212 -0.415338 -0.021919 0.321888 -1.740431 0.531856 0.912554 -11.892595 2.201112 1.665596 -0.334726 0.201651 -0.229861 0.01222 -0.090091 0.019461 0.113802 -0.083693 -11.46049 30.978983 -23.88224 -57.846657 16.651268 -27.863985 -3.867467 0.029787 0.062465 -0.055246 0.000569 1.005915 13.662501 16.033424 32.361576 59.961185 6.237645 18.78331 6.590022 0.035143 -0.025258 0.006719 -8.284527 -5.343617 1.418729 23.689375 -3.652225 1.56424 -1.652229 -0.318284 -0.483002 -0.495998 0.078039 0.048337 -23.076946 6.053417 -3.923333 8.060674 4.292354 -0.013698 0.177148 -1.51183 -0.6077 0.002177 -0.037602 -0.041799 
-0.024965 0.556327 0.028118 8.498368 21.746181 -0.84656 -0.420663 -0.033016 0.30865 -1.801702 0.578784 0.940881 -11.799323 2.656965 1.962303 -0.315186 0.210009 -0.25975 0.015026 -0.113488 0.016748 0.096289 -0.118797 -11.329 30.99235 -22.930643 -58.717602 16.451162 -27.038923 -3.610145 0.036759 0.074195 -0.06742 -0.072361 0.882634 13.816128 15.42419 31.545803 60.7005 6.108057 19.139824 6.419167 0.010394 -0.02531 0.001859 -6.545079 -6.191082 1.874489 23.971779 -4.015687 1.762555 -1.570624 -0.379741 -0.561293 -0.557739 0.094833 0.055928 -24.383631 5.617661 -4.006206 7.779831 4.030728 0.248522 0.278238 -1.565723 -0.635473 0.008667 -0.055714 -0.051612 
-0.020118 0.555418 0.03839 8.432298 21.9762 -1.88839 -0.45306 -0.046626 0.292163 -1.856729 0.60249 0.941604 -11.540606 3.052492 2.218982 -0.352553 0.203314 -0.28798 0.016476 -0.130342 0.013564 0.115649 -0.106283 -11.276375 31.036312 -22.479597 -59.126175 16.24641 -26.405514 -3.476013 0.042142 0.082827 -0.079029 -0.163952 0.772268 14.00812 15.144035 30.546673 61.050758 5.9513 19.768251 6.197 -0.002575 -0.031461 -0.001925 -4.713607 -7.010891 2.260183 24.084829 -4.351534 1.949038 -1.398778 -0.408443 -0.620258 -0.610149 0.108875 0.061516 -25.331364 5.100411 -4.25855 7.341326 3.712925 0.496514 0.41286 -1.633012 -0.662528 0.013155 -0.0684 -0.056686 
-0.014569 0.554958 0.049513 8.409475 22.192078 -2.739637 -0.482722 -0.058586 0.278489 -1.908731 0.586794 0.917081 -11.269416 3.346462 2.362587 -0.373834 0.199246 -0.321182 0.016017 -0.141844 0.010502 0.145948 -0.049569 -11.283123 30.976984 -22.22258 -59.516331 15.913173 -25.741375 -3.349452 0.044221 0.085127 -0.086713 -0.223275 0.644265 14.158409 14.919444 29.762115 61.18465 5.944213 20.702171 5.936614 -0.015553 -0.028958 -0.004587 -3.061172 -7.807732 2.615808 24.085623 -4.653893 2.077223 -1.178186 -0.426677 -0.662328 -0.6597 0.105534 0.061676 -25.881388 4.730655 -4.522837 6.876866 3.456737 0.698877 0.550906 -1.701694 -0.687117 0.013778 -0.072513 -0.057515 
-0.008932 0.554908 0.061363 8.384897 22.400444 -3.313759 -0.493041 -0.068369 0.261795 -1.946173 0.561953 0.887447 -11.039798 3.563188 2.395533 -0.380196 0.204867 -0.346305 0.014523 -0.145364 0.01042 0.216834 0.035606 -11.346441 30.847994 -22.051481 -59.831524 15.61125 -25.145504 -3.205337 0.044356 0.082376 -0.089763 -0.228313 0.46043 14.275414 14.573088 29.370436 61.332607 5.860771 21.472818 5.644654 -0.021648 -0.025054 -0.005022 -1.708188 -8.27875 2.927573 23.979969 -4.814113 2.116208 -1.04758 -0.417929 -0.684079 -0.70679 0.094989 0.059665 -25.982826 4.600611 -4.8206 6.468379 3.371084 0.854406 0.674523 -1.746637 -0.702541 0.010558 -0.071788 -0.054943 
-0.003415 0.5549 0.073546 8.311233 22.629688 -3.607257 -0.496534 -0.085811 0.243493 -1.966685 0.551133 0.854702 -10.830835 3.746723 2.338039 -0.379597 0.207733 -0.363564 0.013145 -0.144569 0.00974 0.306989 0.130251 -11.448237 30.657612 -21.894308 -59.959732 15.364156 -24.775686 -3.110539 0.044191 0.079638 -0.091639 -0.202173 0.244971 14.406651 14.134371 29.327593 61.49847 5.682158 21.855652 5.385915 -0.021857 -0.022813 -0.005082 -0.713373 -8.513539 3.098466 23.993448 -4.871389 2.095286 -0.936077 -0.397692 -0.691581 -0.747629 0.086937 0.057283 -25.65745 4.677762 -5.164832 5.965805 3.425626 0.948405 0.770803 -1.799731 -0.726443 0.00625 -0.070238 -0.051516 
0.001799 0.554493 0.085973 8.298074 22.935009 -3.749092 -0.49577 -0.101236 0.230445 -1.975572 0.545474 0.811655 -10.643077 3.877174 2.203478 -0.370113 0.20615 -0.371679 0.011308 -0.138715 0.009441 0.404808 0.221812 -11.567551 30.434944 -21.798653 -59.887714 15.139788 -24.447817 -3.080678 0.042887 0.075097 -0.091247 -0.1607 0.048518 14.542559 13.686407 29.562244 61.585281 5.459224 21.912672 5.205544 -0.016711 -0.020065 -0.004139 -0.094005 -8.594614 3.167027 24.246508 -4.854931 2.046663 -0.852216 -0.382947 -0.691086 -0.779342 0.078683 0.053906 -25.177095 4.846403 -5.503674 5.51131 3.54884 0.982275 0.830647 -1.84991 -0.75354 -0.000171 -0.066651 -0.047082 
